<?xml version="1.0" encoding="UTF-8" standalone="no"?>
<!DOCTYPE svg PUBLIC "-//W3C//DTD SVG 1.1//EN"
 "http://www.w3.org/Graphics/SVG/1.1/DTD/svg11.dtd">
<!-- Generated by graphviz version 2.40.1 (20161225.0304)
 -->
<!-- Title: %3 Pages: 1 -->
<svg width="2764pt" height="692pt"
 viewBox="0.00 0.00 2764.00 692.00" xmlns="http://www.w3.org/2000/svg" xmlns:xlink="http://www.w3.org/1999/xlink">
<g id="graph0" class="graph" transform="scale(1 1) rotate(0) translate(4 688)">
<title>%3</title>
<polygon fill="#ffffff" stroke="transparent" points="-4,4 -4,-688 2760,-688 2760,4 -4,4"/>
<!-- [root] data.aws_ami.ami -->
<g id="node1" class="node">
<title>[root] data.aws_ami.ami</title>
<polygon fill="none" stroke="#000000" points="327.5,-324 211.5,-324 211.5,-288 327.5,-288 327.5,-324"/>
<text text-anchor="middle" x="269.5" y="-302.3" font-family="Times,serif" font-size="14.00" fill="#000000">data.aws_ami.ami</text>
</g>
<!-- [root] local.datafilter -->
<g id="node2" class="node">
<title>[root] local.datafilter</title>
<polygon fill="none" stroke="#000000" points="387,-252 298,-252 298,-216 393,-216 393,-246 387,-252"/>
<polyline fill="none" stroke="#000000" points="387,-252 387,-246 "/>
<polyline fill="none" stroke="#000000" points="393,-246 387,-246 "/>
<text text-anchor="middle" x="345.5" y="-230.3" font-family="Times,serif" font-size="14.00" fill="#000000">local.datafilter</text>
</g>
<!-- [root] data.aws_ami.ami&#45;&gt;[root] local.datafilter -->
<g id="edge1" class="edge">
<title>[root] data.aws_ami.ami&#45;&gt;[root] local.datafilter</title>
<path fill="none" stroke="#000000" d="M288.678,-287.8314C297.8588,-279.1337 309.0006,-268.5783 318.9776,-259.1265"/>
<polygon fill="#000000" stroke="#000000" points="321.4757,-261.5811 326.3281,-252.1628 316.6615,-256.4995 321.4757,-261.5811"/>
</g>
<!-- [root] provider.aws -->
<g id="node33" class="node">
<title>[root] provider.aws</title>
<polygon fill="none" stroke="#000000" points="269.5,-108 189.5666,-90 269.5,-72 349.4334,-90 269.5,-108"/>
<text text-anchor="middle" x="269.5" y="-86.3" font-family="Times,serif" font-size="14.00" fill="#000000">provider.aws</text>
</g>
<!-- [root] data.aws_ami.ami&#45;&gt;[root] provider.aws -->
<g id="edge2" class="edge">
<title>[root] data.aws_ami.ami&#45;&gt;[root] provider.aws</title>
<path fill="none" stroke="#000000" d="M269.5,-287.9555C269.5,-250.3938 269.5,-163.5541 269.5,-118.4103"/>
<polygon fill="#000000" stroke="#000000" points="273.0001,-118.145 269.5,-108.1451 266.0001,-118.1451 273.0001,-118.145"/>
</g>
<!-- [root] module.stage&#45;compute.aws_autoscaling_group.tfasg -->
<g id="node3" class="node">
<title>[root] module.stage&#45;compute.aws_autoscaling_group.tfasg</title>
<polygon fill="none" stroke="#000000" points="1587.5,-540 1285.5,-540 1285.5,-504 1587.5,-504 1587.5,-540"/>
<text text-anchor="middle" x="1436.5" y="-518.3" font-family="Times,serif" font-size="14.00" fill="#000000">module.stage&#45;compute.aws_autoscaling_group.tfasg</text>
</g>
<!-- [root] module.stage&#45;compute.aws_launch_configuration.awslaunch -->
<g id="node5" class="node">
<title>[root] module.stage&#45;compute.aws_launch_configuration.awslaunch</title>
<polygon fill="none" stroke="#000000" points="747,-468 398,-468 398,-432 747,-432 747,-468"/>
<text text-anchor="middle" x="572.5" y="-446.3" font-family="Times,serif" font-size="14.00" fill="#000000">module.stage&#45;compute.aws_launch_configuration.awslaunch</text>
</g>
<!-- [root] module.stage&#45;compute.aws_autoscaling_group.tfasg&#45;&gt;[root] module.stage&#45;compute.aws_launch_configuration.awslaunch -->
<g id="edge11" class="edge">
<title>[root] module.stage&#45;compute.aws_autoscaling_group.tfasg&#45;&gt;[root] module.stage&#45;compute.aws_launch_configuration.awslaunch</title>
<path fill="none" stroke="#000000" d="M1285.014,-509.3762C1138.0889,-497.1324 914.8961,-478.533 757.535,-465.4196"/>
<polygon fill="#000000" stroke="#000000" points="757.5227,-461.9065 747.2666,-464.5639 756.9414,-468.8823 757.5227,-461.9065"/>
</g>
<!-- [root] module.stage&#45;compute.var.target&#45;group&#45;arns -->
<g id="node11" class="node">
<title>[root] module.stage&#45;compute.var.target&#45;group&#45;arns</title>
<polygon fill="none" stroke="#000000" points="1394.5,-468 1140.5,-468 1140.5,-432 1400.5,-432 1400.5,-462 1394.5,-468"/>
<polyline fill="none" stroke="#000000" points="1394.5,-468 1394.5,-462 "/>
<polyline fill="none" stroke="#000000" points="1400.5,-462 1394.5,-462 "/>
<text text-anchor="middle" x="1270.5" y="-446.3" font-family="Times,serif" font-size="14.00" fill="#000000">module.stage&#45;compute.var.target&#45;group&#45;arns</text>
</g>
<!-- [root] module.stage&#45;compute.aws_autoscaling_group.tfasg&#45;&gt;[root] module.stage&#45;compute.var.target&#45;group&#45;arns -->
<g id="edge12" class="edge">
<title>[root] module.stage&#45;compute.aws_autoscaling_group.tfasg&#45;&gt;[root] module.stage&#45;compute.var.target&#45;group&#45;arns</title>
<path fill="none" stroke="#000000" d="M1394.6112,-503.8314C1372.4097,-494.2018 1344.9578,-482.295 1321.5216,-472.1299"/>
<polygon fill="#000000" stroke="#000000" points="1322.6545,-468.8062 1312.0876,-468.038 1319.8691,-475.2282 1322.6545,-468.8062"/>
</g>
<!-- [root] module.stage&#45;compute.var.vpc&#45;zone&#45;identifier -->
<g id="node15" class="node">
<title>[root] module.stage&#45;compute.var.vpc&#45;zone&#45;identifier</title>
<polygon fill="none" stroke="#000000" points="1747,-468 1484,-468 1484,-432 1753,-432 1753,-462 1747,-468"/>
<polyline fill="none" stroke="#000000" points="1747,-468 1747,-462 "/>
<polyline fill="none" stroke="#000000" points="1753,-462 1747,-462 "/>
<text text-anchor="middle" x="1618.5" y="-446.3" font-family="Times,serif" font-size="14.00" fill="#000000">module.stage&#45;compute.var.vpc&#45;zone&#45;identifier</text>
</g>
<!-- [root] module.stage&#45;compute.aws_autoscaling_group.tfasg&#45;&gt;[root] module.stage&#45;compute.var.vpc&#45;zone&#45;identifier -->
<g id="edge13" class="edge">
<title>[root] module.stage&#45;compute.aws_autoscaling_group.tfasg&#45;&gt;[root] module.stage&#45;compute.var.vpc&#45;zone&#45;identifier</title>
<path fill="none" stroke="#000000" d="M1482.4263,-503.8314C1507.0923,-494.0734 1537.6691,-481.977 1563.586,-471.7242"/>
<polygon fill="#000000" stroke="#000000" points="1564.8927,-474.9713 1572.904,-468.038 1562.3176,-468.4621 1564.8927,-474.9713"/>
</g>
<!-- [root] module.stage&#45;compute.aws_key_pair.ssh -->
<g id="node4" class="node">
<title>[root] module.stage&#45;compute.aws_key_pair.ssh</title>
<polygon fill="none" stroke="#000000" points="241,-180 0,-180 0,-144 241,-144 241,-180"/>
<text text-anchor="middle" x="120.5" y="-158.3" font-family="Times,serif" font-size="14.00" fill="#000000">module.stage&#45;compute.aws_key_pair.ssh</text>
</g>
<!-- [root] module.stage&#45;compute.aws_key_pair.ssh&#45;&gt;[root] provider.aws -->
<g id="edge14" class="edge">
<title>[root] module.stage&#45;compute.aws_key_pair.ssh&#45;&gt;[root] provider.aws</title>
<path fill="none" stroke="#000000" d="M158.099,-143.8314C181.5881,-132.4809 211.6247,-117.9666 234.5886,-106.8699"/>
<polygon fill="#000000" stroke="#000000" points="236.1608,-109.9975 243.6419,-102.4952 233.1152,-103.6947 236.1608,-109.9975"/>
</g>
<!-- [root] module.stage&#45;compute.aws_launch_configuration.awslaunch&#45;&gt;[root] module.stage&#45;compute.aws_key_pair.ssh -->
<g id="edge15" class="edge">
<title>[root] module.stage&#45;compute.aws_launch_configuration.awslaunch&#45;&gt;[root] module.stage&#45;compute.aws_key_pair.ssh</title>
<path fill="none" stroke="#000000" d="M397.9535,-438.6045C285.8479,-429.5283 157.8571,-415.1649 139.5,-396 86.1792,-340.3327 101.2715,-239.2052 112.7958,-190.1675"/>
<polygon fill="#000000" stroke="#000000" points="116.2446,-190.8006 115.2465,-180.2529 109.4491,-189.1208 116.2446,-190.8006"/>
</g>
<!-- [root] module.stage&#45;compute.aws_security_group.instance -->
<g id="node6" class="node">
<title>[root] module.stage&#45;compute.aws_security_group.instance</title>
<polygon fill="none" stroke="#000000" points="1112.5,-396 810.5,-396 810.5,-360 1112.5,-360 1112.5,-396"/>
<text text-anchor="middle" x="961.5" y="-374.3" font-family="Times,serif" font-size="14.00" fill="#000000">module.stage&#45;compute.aws_security_group.instance</text>
</g>
<!-- [root] module.stage&#45;compute.aws_launch_configuration.awslaunch&#45;&gt;[root] module.stage&#45;compute.aws_security_group.instance -->
<g id="edge16" class="edge">
<title>[root] module.stage&#45;compute.aws_launch_configuration.awslaunch&#45;&gt;[root] module.stage&#45;compute.aws_security_group.instance</title>
<path fill="none" stroke="#000000" d="M669.9083,-431.9707C725.9653,-421.5951 796.4941,-408.5409 854.1455,-397.8702"/>
<polygon fill="#000000" stroke="#000000" points="854.8206,-401.3048 864.0166,-396.0432 853.5466,-394.4217 854.8206,-401.3048"/>
</g>
<!-- [root] module.stage&#45;compute.var.image -->
<g id="node10" class="node">
<title>[root] module.stage&#45;compute.var.image</title>
<polygon fill="none" stroke="#000000" points="342.5,-396 148.5,-396 148.5,-360 348.5,-360 348.5,-390 342.5,-396"/>
<polyline fill="none" stroke="#000000" points="342.5,-396 342.5,-390 "/>
<polyline fill="none" stroke="#000000" points="348.5,-390 342.5,-390 "/>
<text text-anchor="middle" x="248.5" y="-374.3" font-family="Times,serif" font-size="14.00" fill="#000000">module.stage&#45;compute.var.image</text>
</g>
<!-- [root] module.stage&#45;compute.aws_launch_configuration.awslaunch&#45;&gt;[root] module.stage&#45;compute.var.image -->
<g id="edge17" class="edge">
<title>[root] module.stage&#45;compute.aws_launch_configuration.awslaunch&#45;&gt;[root] module.stage&#45;compute.var.image</title>
<path fill="none" stroke="#000000" d="M491.1593,-431.9243C445.0459,-421.6769 387.2261,-408.828 339.5946,-398.2432"/>
<polygon fill="#000000" stroke="#000000" points="340.1142,-394.7734 329.5931,-396.0207 338.5957,-401.6067 340.1142,-394.7734"/>
</g>
<!-- [root] module.stage&#45;compute.var.type -->
<g id="node12" class="node">
<title>[root] module.stage&#45;compute.var.type</title>
<polygon fill="none" stroke="#000000" points="550,-396 367,-396 367,-360 556,-360 556,-390 550,-396"/>
<polyline fill="none" stroke="#000000" points="550,-396 550,-390 "/>
<polyline fill="none" stroke="#000000" points="556,-390 550,-390 "/>
<text text-anchor="middle" x="461.5" y="-374.3" font-family="Times,serif" font-size="14.00" fill="#000000">module.stage&#45;compute.var.type</text>
</g>
<!-- [root] module.stage&#45;compute.aws_launch_configuration.awslaunch&#45;&gt;[root] module.stage&#45;compute.var.type -->
<g id="edge18" class="edge">
<title>[root] module.stage&#45;compute.aws_launch_configuration.awslaunch&#45;&gt;[root] module.stage&#45;compute.var.type</title>
<path fill="none" stroke="#000000" d="M544.49,-431.8314C530.4239,-422.7074 513.206,-411.539 498.1067,-401.7449"/>
<polygon fill="#000000" stroke="#000000" points="499.7953,-398.6684 489.501,-396.1628 495.986,-404.5412 499.7953,-398.6684"/>
</g>
<!-- [root] module.stage&#45;compute.var.user_data -->
<g id="node13" class="node">
<title>[root] module.stage&#45;compute.var.user_data</title>
<polygon fill="none" stroke="#000000" points="786.5,-396 574.5,-396 574.5,-360 792.5,-360 792.5,-390 786.5,-396"/>
<polyline fill="none" stroke="#000000" points="786.5,-396 786.5,-390 "/>
<polyline fill="none" stroke="#000000" points="792.5,-390 786.5,-390 "/>
<text text-anchor="middle" x="683.5" y="-374.3" font-family="Times,serif" font-size="14.00" fill="#000000">module.stage&#45;compute.var.user_data</text>
</g>
<!-- [root] module.stage&#45;compute.aws_launch_configuration.awslaunch&#45;&gt;[root] module.stage&#45;compute.var.user_data -->
<g id="edge19" class="edge">
<title>[root] module.stage&#45;compute.aws_launch_configuration.awslaunch&#45;&gt;[root] module.stage&#45;compute.var.user_data</title>
<path fill="none" stroke="#000000" d="M600.51,-431.8314C614.5761,-422.7074 631.794,-411.539 646.8933,-401.7449"/>
<polygon fill="#000000" stroke="#000000" points="649.014,-404.5412 655.499,-396.1628 645.2047,-398.6684 649.014,-404.5412"/>
</g>
<!-- [root] module.stage&#45;compute.local.ingress_config2 -->
<g id="node8" class="node">
<title>[root] module.stage&#45;compute.local.ingress_config2</title>
<polygon fill="none" stroke="#000000" points="878,-324 623,-324 623,-288 884,-288 884,-318 878,-324"/>
<polyline fill="none" stroke="#000000" points="878,-324 878,-318 "/>
<polyline fill="none" stroke="#000000" points="884,-318 878,-318 "/>
<text text-anchor="middle" x="753.5" y="-302.3" font-family="Times,serif" font-size="14.00" fill="#000000">module.stage&#45;compute.local.ingress_config2</text>
</g>
<!-- [root] module.stage&#45;compute.aws_security_group.instance&#45;&gt;[root] module.stage&#45;compute.local.ingress_config2 -->
<g id="edge20" class="edge">
<title>[root] module.stage&#45;compute.aws_security_group.instance&#45;&gt;[root] module.stage&#45;compute.local.ingress_config2</title>
<path fill="none" stroke="#000000" d="M909.2813,-359.9243C880.7229,-350.0387 845.1705,-337.7321 815.2432,-327.3726"/>
<polygon fill="#000000" stroke="#000000" points="816.335,-324.0469 805.7402,-324.0831 814.0451,-330.6618 816.335,-324.0469"/>
</g>
<!-- [root] module.stage&#45;compute.var.vpc&#45;id -->
<g id="node14" class="node">
<title>[root] module.stage&#45;compute.var.vpc&#45;id</title>
<polygon fill="none" stroke="#000000" points="1096.5,-324 902.5,-324 902.5,-288 1102.5,-288 1102.5,-318 1096.5,-324"/>
<polyline fill="none" stroke="#000000" points="1096.5,-324 1096.5,-318 "/>
<polyline fill="none" stroke="#000000" points="1102.5,-318 1096.5,-318 "/>
<text text-anchor="middle" x="1002.5" y="-302.3" font-family="Times,serif" font-size="14.00" fill="#000000">module.stage&#45;compute.var.vpc&#45;id</text>
</g>
<!-- [root] module.stage&#45;compute.aws_security_group.instance&#45;&gt;[root] module.stage&#45;compute.var.vpc&#45;id -->
<g id="edge21" class="edge">
<title>[root] module.stage&#45;compute.aws_security_group.instance&#45;&gt;[root] module.stage&#45;compute.var.vpc&#45;id</title>
<path fill="none" stroke="#000000" d="M971.846,-359.8314C976.4237,-351.7925 981.9052,-342.1666 986.9588,-333.2918"/>
<polygon fill="#000000" stroke="#000000" points="990.1077,-334.8351 992.0147,-324.4133 984.0248,-331.3712 990.1077,-334.8351"/>
</g>
<!-- [root] module.stage&#45;compute.local.ingress_config -->
<g id="node7" class="node">
<title>[root] module.stage&#45;compute.local.ingress_config</title>
<polygon fill="none" stroke="#000000" points="2447.5,-540 2199.5,-540 2199.5,-504 2453.5,-504 2453.5,-534 2447.5,-540"/>
<polyline fill="none" stroke="#000000" points="2447.5,-540 2447.5,-534 "/>
<polyline fill="none" stroke="#000000" points="2453.5,-534 2447.5,-534 "/>
<text text-anchor="middle" x="2326.5" y="-518.3" font-family="Times,serif" font-size="14.00" fill="#000000">module.stage&#45;compute.local.ingress_config</text>
</g>
<!-- [root] module.stage&#45;compute.var.az -->
<g id="node9" class="node">
<title>[root] module.stage&#45;compute.var.az</title>
<polygon fill="none" stroke="#000000" points="2643.5,-540 2471.5,-540 2471.5,-504 2649.5,-504 2649.5,-534 2643.5,-540"/>
<polyline fill="none" stroke="#000000" points="2643.5,-540 2643.5,-534 "/>
<polyline fill="none" stroke="#000000" points="2649.5,-534 2643.5,-534 "/>
<text text-anchor="middle" x="2560.5" y="-518.3" font-family="Times,serif" font-size="14.00" fill="#000000">module.stage&#45;compute.var.az</text>
</g>
<!-- [root] module.stage&#45;compute.var.image&#45;&gt;[root] data.aws_ami.ami -->
<g id="edge22" class="edge">
<title>[root] module.stage&#45;compute.var.image&#45;&gt;[root] data.aws_ami.ami</title>
<path fill="none" stroke="#000000" d="M253.7992,-359.8314C256.0698,-352.0463 258.7746,-342.7729 261.294,-334.1347"/>
<polygon fill="#000000" stroke="#000000" points="264.6894,-334.9933 264.1295,-324.4133 257.9694,-333.0332 264.6894,-334.9933"/>
</g>
<!-- [root] module.stage&#45;network.output.target_group_arn -->
<g id="node27" class="node">
<title>[root] module.stage&#45;network.output.target_group_arn</title>
<polygon fill="none" stroke="#000000" points="1398,-396 1131,-396 1131,-360 1404,-360 1404,-390 1398,-396"/>
<polyline fill="none" stroke="#000000" points="1398,-396 1398,-390 "/>
<polyline fill="none" stroke="#000000" points="1404,-390 1398,-390 "/>
<text text-anchor="middle" x="1267.5" y="-374.3" font-family="Times,serif" font-size="14.00" fill="#000000">module.stage&#45;network.output.target_group_arn</text>
</g>
<!-- [root] module.stage&#45;compute.var.target&#45;group&#45;arns&#45;&gt;[root] module.stage&#45;network.output.target_group_arn -->
<g id="edge23" class="edge">
<title>[root] module.stage&#45;compute.var.target&#45;group&#45;arns&#45;&gt;[root] module.stage&#45;network.output.target_group_arn</title>
<path fill="none" stroke="#000000" d="M1269.743,-431.8314C1269.4221,-424.131 1269.0406,-414.9743 1268.684,-406.4166"/>
<polygon fill="#000000" stroke="#000000" points="1272.1806,-406.2589 1268.2672,-396.4133 1265.1867,-406.5503 1272.1806,-406.2589"/>
</g>
<!-- [root] var.stage&#45;type -->
<g id="node36" class="node">
<title>[root] var.stage&#45;type</title>
<polygon fill="none" stroke="#000000" points="502,-324 415,-324 415,-288 508,-288 508,-318 502,-324"/>
<polyline fill="none" stroke="#000000" points="502,-324 502,-318 "/>
<polyline fill="none" stroke="#000000" points="508,-318 502,-318 "/>
<text text-anchor="middle" x="461.5" y="-302.3" font-family="Times,serif" font-size="14.00" fill="#000000">var.stage&#45;type</text>
</g>
<!-- [root] module.stage&#45;compute.var.type&#45;&gt;[root] var.stage&#45;type -->
<g id="edge24" class="edge">
<title>[root] module.stage&#45;compute.var.type&#45;&gt;[root] var.stage&#45;type</title>
<path fill="none" stroke="#000000" d="M461.5,-359.8314C461.5,-352.131 461.5,-342.9743 461.5,-334.4166"/>
<polygon fill="#000000" stroke="#000000" points="465.0001,-334.4132 461.5,-324.4133 458.0001,-334.4133 465.0001,-334.4132"/>
</g>
<!-- [root] module.stage&#45;network.output.vpc&#45;id -->
<g id="node28" class="node">
<title>[root] module.stage&#45;network.output.vpc&#45;id</title>
<polygon fill="none" stroke="#000000" points="1152,-252 943,-252 943,-216 1158,-216 1158,-246 1152,-252"/>
<polyline fill="none" stroke="#000000" points="1152,-252 1152,-246 "/>
<polyline fill="none" stroke="#000000" points="1158,-246 1152,-246 "/>
<text text-anchor="middle" x="1050.5" y="-230.3" font-family="Times,serif" font-size="14.00" fill="#000000">module.stage&#45;network.output.vpc&#45;id</text>
</g>
<!-- [root] module.stage&#45;compute.var.vpc&#45;id&#45;&gt;[root] module.stage&#45;network.output.vpc&#45;id -->
<g id="edge25" class="edge">
<title>[root] module.stage&#45;compute.var.vpc&#45;id&#45;&gt;[root] module.stage&#45;network.output.vpc&#45;id</title>
<path fill="none" stroke="#000000" d="M1014.6124,-287.8314C1020.0281,-279.7079 1026.5242,-269.9637 1032.4921,-261.0118"/>
<polygon fill="#000000" stroke="#000000" points="1035.5896,-262.6753 1038.2245,-252.4133 1029.7653,-258.7923 1035.5896,-262.6753"/>
</g>
<!-- [root] module.stage&#45;network.output.aws_subnet&#45;web1&#45;id -->
<g id="node25" class="node">
<title>[root] module.stage&#45;network.output.aws_subnet&#45;web1&#45;id</title>
<polygon fill="none" stroke="#000000" points="1784.5,-396 1498.5,-396 1498.5,-360 1790.5,-360 1790.5,-390 1784.5,-396"/>
<polyline fill="none" stroke="#000000" points="1784.5,-396 1784.5,-390 "/>
<polyline fill="none" stroke="#000000" points="1790.5,-390 1784.5,-390 "/>
<text text-anchor="middle" x="1644.5" y="-374.3" font-family="Times,serif" font-size="14.00" fill="#000000">module.stage&#45;network.output.aws_subnet&#45;web1&#45;id</text>
</g>
<!-- [root] module.stage&#45;compute.var.vpc&#45;zone&#45;identifier&#45;&gt;[root] module.stage&#45;network.output.aws_subnet&#45;web1&#45;id -->
<g id="edge26" class="edge">
<title>[root] module.stage&#45;compute.var.vpc&#45;zone&#45;identifier&#45;&gt;[root] module.stage&#45;network.output.aws_subnet&#45;web1&#45;id</title>
<path fill="none" stroke="#000000" d="M1625.0609,-431.8314C1627.9027,-423.9617 1631.2937,-414.5712 1634.4419,-405.8533"/>
<polygon fill="#000000" stroke="#000000" points="1637.7462,-407.0076 1637.8508,-396.4133 1631.1623,-404.63 1637.7462,-407.0076"/>
</g>
<!-- [root] module.stage&#45;network.output.aws_subnet&#45;web2&#45;id -->
<g id="node26" class="node">
<title>[root] module.stage&#45;network.output.aws_subnet&#45;web2&#45;id</title>
<polygon fill="none" stroke="#000000" points="2094.5,-396 1808.5,-396 1808.5,-360 2100.5,-360 2100.5,-390 2094.5,-396"/>
<polyline fill="none" stroke="#000000" points="2094.5,-396 2094.5,-390 "/>
<polyline fill="none" stroke="#000000" points="2100.5,-390 2094.5,-390 "/>
<text text-anchor="middle" x="1954.5" y="-374.3" font-family="Times,serif" font-size="14.00" fill="#000000">module.stage&#45;network.output.aws_subnet&#45;web2&#45;id</text>
</g>
<!-- [root] module.stage&#45;compute.var.vpc&#45;zone&#45;identifier&#45;&gt;[root] module.stage&#45;network.output.aws_subnet&#45;web2&#45;id -->
<g id="edge27" class="edge">
<title>[root] module.stage&#45;compute.var.vpc&#45;zone&#45;identifier&#45;&gt;[root] module.stage&#45;network.output.aws_subnet&#45;web2&#45;id</title>
<path fill="none" stroke="#000000" d="M1702.8533,-431.9243C1750.7746,-421.6554 1810.8868,-408.7743 1860.3414,-398.1768"/>
<polygon fill="#000000" stroke="#000000" points="1861.3588,-401.5384 1870.4035,-396.0207 1859.8921,-394.6937 1861.3588,-401.5384"/>
</g>
<!-- [root] module.stage&#45;network.aws_internet_gateway.igw -->
<g id="node16" class="node">
<title>[root] module.stage&#45;network.aws_internet_gateway.igw</title>
<polygon fill="none" stroke="#000000" points="1569,-252 1282,-252 1282,-216 1569,-216 1569,-252"/>
<text text-anchor="middle" x="1425.5" y="-230.3" font-family="Times,serif" font-size="14.00" fill="#000000">module.stage&#45;network.aws_internet_gateway.igw</text>
</g>
<!-- [root] module.stage&#45;network.aws_vpc.tfvpc -->
<g id="node23" class="node">
<title>[root] module.stage&#45;network.aws_vpc.tfvpc</title>
<polygon fill="none" stroke="#000000" points="1536,-180 1315,-180 1315,-144 1536,-144 1536,-180"/>
<text text-anchor="middle" x="1425.5" y="-158.3" font-family="Times,serif" font-size="14.00" fill="#000000">module.stage&#45;network.aws_vpc.tfvpc</text>
</g>
<!-- [root] module.stage&#45;network.aws_internet_gateway.igw&#45;&gt;[root] module.stage&#45;network.aws_vpc.tfvpc -->
<g id="edge28" class="edge">
<title>[root] module.stage&#45;network.aws_internet_gateway.igw&#45;&gt;[root] module.stage&#45;network.aws_vpc.tfvpc</title>
<path fill="none" stroke="#000000" d="M1425.5,-215.8314C1425.5,-208.131 1425.5,-198.9743 1425.5,-190.4166"/>
<polygon fill="#000000" stroke="#000000" points="1429.0001,-190.4132 1425.5,-180.4133 1422.0001,-190.4133 1429.0001,-190.4132"/>
</g>
<!-- [root] module.stage&#45;network.aws_lb.nlb -->
<g id="node17" class="node">
<title>[root] module.stage&#45;network.aws_lb.nlb</title>
<polygon fill="none" stroke="#000000" points="2320,-396 2119,-396 2119,-360 2320,-360 2320,-396"/>
<text text-anchor="middle" x="2219.5" y="-374.3" font-family="Times,serif" font-size="14.00" fill="#000000">module.stage&#45;network.aws_lb.nlb</text>
</g>
<!-- [root] module.stage&#45;network.aws_subnet.web1 -->
<g id="node21" class="node">
<title>[root] module.stage&#45;network.aws_subnet.web1</title>
<polygon fill="none" stroke="#000000" points="1823.5,-324 1585.5,-324 1585.5,-288 1823.5,-288 1823.5,-324"/>
<text text-anchor="middle" x="1704.5" y="-302.3" font-family="Times,serif" font-size="14.00" fill="#000000">module.stage&#45;network.aws_subnet.web1</text>
</g>
<!-- [root] module.stage&#45;network.aws_lb.nlb&#45;&gt;[root] module.stage&#45;network.aws_subnet.web1 -->
<g id="edge29" class="edge">
<title>[root] module.stage&#45;network.aws_lb.nlb&#45;&gt;[root] module.stage&#45;network.aws_subnet.web1</title>
<path fill="none" stroke="#000000" d="M2118.8126,-361.3876C2115.6735,-360.9133 2112.5634,-360.4496 2109.5,-360 1989.908,-342.4487 1957.2318,-340.7259 1833.9478,-324.1853"/>
<polygon fill="#000000" stroke="#000000" points="1834.1067,-320.6751 1823.7288,-322.8082 1833.1718,-327.6124 1834.1067,-320.6751"/>
</g>
<!-- [root] module.stage&#45;network.aws_subnet.web2 -->
<g id="node22" class="node">
<title>[root] module.stage&#45;network.aws_subnet.web2</title>
<polygon fill="none" stroke="#000000" points="2079.5,-324 1841.5,-324 1841.5,-288 2079.5,-288 2079.5,-324"/>
<text text-anchor="middle" x="1960.5" y="-302.3" font-family="Times,serif" font-size="14.00" fill="#000000">module.stage&#45;network.aws_subnet.web2</text>
</g>
<!-- [root] module.stage&#45;network.aws_lb.nlb&#45;&gt;[root] module.stage&#45;network.aws_subnet.web2 -->
<g id="edge30" class="edge">
<title>[root] module.stage&#45;network.aws_lb.nlb&#45;&gt;[root] module.stage&#45;network.aws_subnet.web2</title>
<path fill="none" stroke="#000000" d="M2154.4777,-359.9243C2118.3011,-349.8675 2073.1116,-337.3052 2035.4527,-326.8363"/>
<polygon fill="#000000" stroke="#000000" points="2036.1212,-323.3894 2025.5491,-324.0831 2034.2463,-330.1337 2036.1212,-323.3894"/>
</g>
<!-- [root] module.stage&#45;network.aws_lb_listener.frontend -->
<g id="node18" class="node">
<title>[root] module.stage&#45;network.aws_lb_listener.frontend</title>
<polygon fill="none" stroke="#000000" points="2047.5,-468 1771.5,-468 1771.5,-432 2047.5,-432 2047.5,-468"/>
<text text-anchor="middle" x="1909.5" y="-446.3" font-family="Times,serif" font-size="14.00" fill="#000000">module.stage&#45;network.aws_lb_listener.frontend</text>
</g>
<!-- [root] module.stage&#45;network.aws_lb_listener.frontend&#45;&gt;[root] module.stage&#45;network.aws_lb.nlb -->
<g id="edge31" class="edge">
<title>[root] module.stage&#45;network.aws_lb_listener.frontend&#45;&gt;[root] module.stage&#45;network.aws_lb.nlb</title>
<path fill="none" stroke="#000000" d="M1987.326,-431.9243C2031.3545,-421.6983 2086.5368,-408.8818 2132.0554,-398.3097"/>
<polygon fill="#000000" stroke="#000000" points="2132.9621,-401.6924 2141.9109,-396.0207 2131.3784,-394.8739 2132.9621,-401.6924"/>
</g>
<!-- [root] module.stage&#45;network.aws_lb_target_group.pool -->
<g id="node19" class="node">
<title>[root] module.stage&#45;network.aws_lb_target_group.pool</title>
<polygon fill="none" stroke="#000000" points="1404.5,-324 1120.5,-324 1120.5,-288 1404.5,-288 1404.5,-324"/>
<text text-anchor="middle" x="1262.5" y="-302.3" font-family="Times,serif" font-size="14.00" fill="#000000">module.stage&#45;network.aws_lb_target_group.pool</text>
</g>
<!-- [root] module.stage&#45;network.aws_lb_listener.frontend&#45;&gt;[root] module.stage&#45;network.aws_lb_target_group.pool -->
<g id="edge32" class="edge">
<title>[root] module.stage&#45;network.aws_lb_listener.frontend&#45;&gt;[root] module.stage&#45;network.aws_lb_target_group.pool</title>
<path fill="none" stroke="#000000" d="M1771.3179,-432.7492C1651.5792,-417.7217 1496.395,-398.021 1489.5,-396 1453.6333,-385.4872 1448.0276,-374.3103 1413.5,-360 1385.4394,-348.37 1353.8707,-336.8451 1326.8806,-327.4479"/>
<polygon fill="#000000" stroke="#000000" points="1327.7537,-324.0465 1317.1589,-324.0858 1325.4658,-330.6621 1327.7537,-324.0465"/>
</g>
<!-- [root] module.stage&#45;network.aws_lb_target_group.pool&#45;&gt;[root] module.stage&#45;network.aws_vpc.tfvpc -->
<g id="edge33" class="edge">
<title>[root] module.stage&#45;network.aws_lb_target_group.pool&#45;&gt;[root] module.stage&#45;network.aws_vpc.tfvpc</title>
<path fill="none" stroke="#000000" d="M1259.525,-287.6516C1257.3839,-267.7977 1257.2587,-236.2688 1273.5,-216 1283.0994,-204.0201 1312.3547,-192.3972 1342.6695,-183.0228"/>
<polygon fill="#000000" stroke="#000000" points="1343.9562,-186.2908 1352.5256,-180.0606 1341.9413,-179.5871 1343.9562,-186.2908"/>
</g>
<!-- [root] module.stage&#45;network.aws_route.tfroute -->
<g id="node20" class="node">
<title>[root] module.stage&#45;network.aws_route.tfroute</title>
<polygon fill="none" stroke="#000000" points="1843,-540 1606,-540 1606,-504 1843,-504 1843,-540"/>
<text text-anchor="middle" x="1724.5" y="-518.3" font-family="Times,serif" font-size="14.00" fill="#000000">module.stage&#45;network.aws_route.tfroute</text>
</g>
<!-- [root] module.stage&#45;network.aws_route.tfroute&#45;&gt;[root] module.stage&#45;network.aws_internet_gateway.igw -->
<g id="edge34" class="edge">
<title>[root] module.stage&#45;network.aws_route.tfroute&#45;&gt;[root] module.stage&#45;network.aws_internet_gateway.igw</title>
<path fill="none" stroke="#000000" d="M1615.5277,-503.9841C1553.442,-492.7442 1485.9427,-478.4746 1475.5,-468 1420.1468,-412.4777 1419.2337,-311.6439 1422.5763,-262.4825"/>
<polygon fill="#000000" stroke="#000000" points="1426.0856,-262.5019 1423.386,-252.2568 1419.1074,-261.9493 1426.0856,-262.5019"/>
</g>
<!-- [root] module.stage&#45;network.aws_subnet.web1&#45;&gt;[root] module.stage&#45;network.aws_vpc.tfvpc -->
<g id="edge35" class="edge">
<title>[root] module.stage&#45;network.aws_subnet.web1&#45;&gt;[root] module.stage&#45;network.aws_vpc.tfvpc</title>
<path fill="none" stroke="#000000" d="M1671.251,-287.801C1654.3093,-277.9872 1633.7087,-265.2015 1616.5,-252 1598.0414,-237.8397 1598.3477,-228.1369 1578.5,-216 1556.2241,-202.3782 1530.0201,-191.5411 1505.6534,-183.2581"/>
<polygon fill="#000000" stroke="#000000" points="1506.6535,-179.9025 1496.0604,-180.094 1504.4609,-186.5503 1506.6535,-179.9025"/>
</g>
<!-- [root] module.stage&#45;network.var.az -->
<g id="node29" class="node">
<title>[root] module.stage&#45;network.var.az</title>
<polygon fill="none" stroke="#000000" points="1995,-252 1826,-252 1826,-216 2001,-216 2001,-246 1995,-252"/>
<polyline fill="none" stroke="#000000" points="1995,-252 1995,-246 "/>
<polyline fill="none" stroke="#000000" points="2001,-246 1995,-246 "/>
<text text-anchor="middle" x="1913.5" y="-230.3" font-family="Times,serif" font-size="14.00" fill="#000000">module.stage&#45;network.var.az</text>
</g>
<!-- [root] module.stage&#45;network.aws_subnet.web1&#45;&gt;[root] module.stage&#45;network.var.az -->
<g id="edge36" class="edge">
<title>[root] module.stage&#45;network.aws_subnet.web1&#45;&gt;[root] module.stage&#45;network.var.az</title>
<path fill="none" stroke="#000000" d="M1756.9698,-287.9243C1785.6655,-278.0387 1821.3888,-265.7321 1851.46,-255.3726"/>
<polygon fill="#000000" stroke="#000000" points="1852.694,-258.6495 1861.0087,-252.0831 1850.4139,-252.0312 1852.694,-258.6495"/>
</g>
<!-- [root] module.stage&#45;network.var.sub -->
<g id="node30" class="node">
<title>[root] module.stage&#45;network.var.sub</title>
<polygon fill="none" stroke="#000000" points="1801.5,-252 1625.5,-252 1625.5,-216 1807.5,-216 1807.5,-246 1801.5,-252"/>
<polyline fill="none" stroke="#000000" points="1801.5,-252 1801.5,-246 "/>
<polyline fill="none" stroke="#000000" points="1807.5,-246 1801.5,-246 "/>
<text text-anchor="middle" x="1716.5" y="-230.3" font-family="Times,serif" font-size="14.00" fill="#000000">module.stage&#45;network.var.sub</text>
</g>
<!-- [root] module.stage&#45;network.aws_subnet.web1&#45;&gt;[root] module.stage&#45;network.var.sub -->
<g id="edge37" class="edge">
<title>[root] module.stage&#45;network.aws_subnet.web1&#45;&gt;[root] module.stage&#45;network.var.sub</title>
<path fill="none" stroke="#000000" d="M1707.5281,-287.8314C1708.8115,-280.131 1710.3376,-270.9743 1711.7639,-262.4166"/>
<polygon fill="#000000" stroke="#000000" points="1715.2394,-262.8526 1713.4311,-252.4133 1708.3347,-261.7018 1715.2394,-262.8526"/>
</g>
<!-- [root] module.stage&#45;network.aws_subnet.web2&#45;&gt;[root] module.stage&#45;network.aws_vpc.tfvpc -->
<g id="edge38" class="edge">
<title>[root] module.stage&#45;network.aws_subnet.web2&#45;&gt;[root] module.stage&#45;network.aws_vpc.tfvpc</title>
<path fill="none" stroke="#000000" d="M1982.8843,-287.8759C2004.1771,-268.504 2030.2525,-237.6598 2010.5,-216 1979.8708,-182.4133 1708.2246,-169.4179 1546.0821,-164.6227"/>
<polygon fill="#000000" stroke="#000000" points="1546.142,-161.1231 1536.0449,-164.3322 1545.9394,-168.1202 1546.142,-161.1231"/>
</g>
<!-- [root] module.stage&#45;network.aws_subnet.web2&#45;&gt;[root] module.stage&#45;network.var.az -->
<g id="edge39" class="edge">
<title>[root] module.stage&#45;network.aws_subnet.web2&#45;&gt;[root] module.stage&#45;network.var.az</title>
<path fill="none" stroke="#000000" d="M1948.6399,-287.8314C1943.3371,-279.7079 1936.9763,-269.9637 1931.1327,-261.0118"/>
<polygon fill="#000000" stroke="#000000" points="1933.9169,-258.8739 1925.5198,-252.4133 1928.0552,-262.7003 1933.9169,-258.8739"/>
</g>
<!-- [root] module.stage&#45;network.aws_subnet.web2&#45;&gt;[root] module.stage&#45;network.var.sub -->
<g id="edge40" class="edge">
<title>[root] module.stage&#45;network.aws_subnet.web2&#45;&gt;[root] module.stage&#45;network.var.sub</title>
<path fill="none" stroke="#000000" d="M1899.2434,-287.9243C1865.3071,-277.9103 1822.9519,-265.412 1787.5651,-254.97"/>
<polygon fill="#000000" stroke="#000000" points="1788.3635,-251.5565 1777.7818,-252.0831 1786.3823,-258.2703 1788.3635,-251.5565"/>
</g>
<!-- [root] module.stage&#45;network.var.vpc -->
<g id="node31" class="node">
<title>[root] module.stage&#45;network.var.vpc</title>
<polygon fill="none" stroke="#000000" points="1558.5,-108 1382.5,-108 1382.5,-72 1564.5,-72 1564.5,-102 1558.5,-108"/>
<polyline fill="none" stroke="#000000" points="1558.5,-108 1558.5,-102 "/>
<polyline fill="none" stroke="#000000" points="1564.5,-102 1558.5,-102 "/>
<text text-anchor="middle" x="1473.5" y="-86.3" font-family="Times,serif" font-size="14.00" fill="#000000">module.stage&#45;network.var.vpc</text>
</g>
<!-- [root] module.stage&#45;network.aws_vpc.tfvpc&#45;&gt;[root] module.stage&#45;network.var.vpc -->
<g id="edge41" class="edge">
<title>[root] module.stage&#45;network.aws_vpc.tfvpc&#45;&gt;[root] module.stage&#45;network.var.vpc</title>
<path fill="none" stroke="#000000" d="M1437.6124,-143.8314C1443.0281,-135.7079 1449.5242,-125.9637 1455.4921,-117.0118"/>
<polygon fill="#000000" stroke="#000000" points="1458.5896,-118.6753 1461.2245,-108.4133 1452.7653,-114.7923 1458.5896,-118.6753"/>
</g>
<!-- [root] module.stage&#45;network.aws_vpc.tfvpc&#45;&gt;[root] provider.aws -->
<g id="edge42" class="edge">
<title>[root] module.stage&#45;network.aws_vpc.tfvpc&#45;&gt;[root] provider.aws</title>
<path fill="none" stroke="#000000" d="M1314.9198,-155.1127C1080.5145,-140.513 539.1004,-106.7917 342.5107,-94.5474"/>
<polygon fill="#000000" stroke="#000000" points="342.4914,-91.0395 332.2931,-93.911 342.0562,-98.0259 342.4914,-91.0395"/>
</g>
<!-- [root] module.stage&#45;network.output.alb_dns_name -->
<g id="node24" class="node">
<title>[root] module.stage&#45;network.output.alb_dns_name</title>
<polygon fill="none" stroke="#000000" points="2331,-468 2078,-468 2078,-432 2337,-432 2337,-462 2331,-468"/>
<polyline fill="none" stroke="#000000" points="2331,-468 2331,-462 "/>
<polyline fill="none" stroke="#000000" points="2337,-462 2331,-462 "/>
<text text-anchor="middle" x="2207.5" y="-446.3" font-family="Times,serif" font-size="14.00" fill="#000000">module.stage&#45;network.output.alb_dns_name</text>
</g>
<!-- [root] module.stage&#45;network.output.alb_dns_name&#45;&gt;[root] module.stage&#45;network.aws_lb.nlb -->
<g id="edge43" class="edge">
<title>[root] module.stage&#45;network.output.alb_dns_name&#45;&gt;[root] module.stage&#45;network.aws_lb.nlb</title>
<path fill="none" stroke="#000000" d="M2210.5281,-431.8314C2211.8115,-424.131 2213.3376,-414.9743 2214.7639,-406.4166"/>
<polygon fill="#000000" stroke="#000000" points="2218.2394,-406.8526 2216.4311,-396.4133 2211.3347,-405.7018 2218.2394,-406.8526"/>
</g>
<!-- [root] module.stage&#45;network.output.aws_subnet&#45;web1&#45;id&#45;&gt;[root] module.stage&#45;network.aws_subnet.web1 -->
<g id="edge44" class="edge">
<title>[root] module.stage&#45;network.output.aws_subnet&#45;web1&#45;id&#45;&gt;[root] module.stage&#45;network.aws_subnet.web1</title>
<path fill="none" stroke="#000000" d="M1659.6405,-359.8314C1666.6217,-351.454 1675.0391,-341.3531 1682.6876,-332.1749"/>
<polygon fill="#000000" stroke="#000000" points="1685.4425,-334.3362 1689.1556,-324.4133 1680.0649,-329.8548 1685.4425,-334.3362"/>
</g>
<!-- [root] module.stage&#45;network.output.aws_subnet&#45;web2&#45;id&#45;&gt;[root] module.stage&#45;network.aws_subnet.web2 -->
<g id="edge45" class="edge">
<title>[root] module.stage&#45;network.output.aws_subnet&#45;web2&#45;id&#45;&gt;[root] module.stage&#45;network.aws_subnet.web2</title>
<path fill="none" stroke="#000000" d="M1956.0141,-359.8314C1956.6558,-352.131 1957.4188,-342.9743 1958.1319,-334.4166"/>
<polygon fill="#000000" stroke="#000000" points="1961.6229,-334.6694 1958.9656,-324.4133 1954.6471,-334.088 1961.6229,-334.6694"/>
</g>
<!-- [root] module.stage&#45;network.output.target_group_arn&#45;&gt;[root] module.stage&#45;network.aws_lb_target_group.pool -->
<g id="edge46" class="edge">
<title>[root] module.stage&#45;network.output.target_group_arn&#45;&gt;[root] module.stage&#45;network.aws_lb_target_group.pool</title>
<path fill="none" stroke="#000000" d="M1266.2383,-359.8314C1265.7035,-352.131 1265.0677,-342.9743 1264.4734,-334.4166"/>
<polygon fill="#000000" stroke="#000000" points="1267.9632,-334.1467 1263.7787,-324.4133 1260.98,-334.6317 1267.9632,-334.1467"/>
</g>
<!-- [root] module.stage&#45;network.output.vpc&#45;id&#45;&gt;[root] module.stage&#45;network.aws_vpc.tfvpc -->
<g id="edge47" class="edge">
<title>[root] module.stage&#45;network.output.vpc&#45;id&#45;&gt;[root] module.stage&#45;network.aws_vpc.tfvpc</title>
<path fill="none" stroke="#000000" d="M1144.6443,-215.9243C1198.5746,-205.5697 1266.3388,-192.5589 1321.7925,-181.9118"/>
<polygon fill="#000000" stroke="#000000" points="1322.4816,-185.3435 1331.6423,-180.0207 1321.1617,-178.4691 1322.4816,-185.3435"/>
</g>
<!-- [root] var.stage&#45;az -->
<g id="node34" class="node">
<title>[root] var.stage&#45;az</title>
<polygon fill="none" stroke="#000000" points="1948.5,-180 1872.5,-180 1872.5,-144 1954.5,-144 1954.5,-174 1948.5,-180"/>
<polyline fill="none" stroke="#000000" points="1948.5,-180 1948.5,-174 "/>
<polyline fill="none" stroke="#000000" points="1954.5,-174 1948.5,-174 "/>
<text text-anchor="middle" x="1913.5" y="-158.3" font-family="Times,serif" font-size="14.00" fill="#000000">var.stage&#45;az</text>
</g>
<!-- [root] module.stage&#45;network.var.az&#45;&gt;[root] var.stage&#45;az -->
<g id="edge48" class="edge">
<title>[root] module.stage&#45;network.var.az&#45;&gt;[root] var.stage&#45;az</title>
<path fill="none" stroke="#000000" d="M1913.5,-215.8314C1913.5,-208.131 1913.5,-198.9743 1913.5,-190.4166"/>
<polygon fill="#000000" stroke="#000000" points="1917.0001,-190.4132 1913.5,-180.4133 1910.0001,-190.4133 1917.0001,-190.4132"/>
</g>
<!-- [root] var.vpc&#45;stage -->
<g id="node38" class="node">
<title>[root] var.vpc&#45;stage</title>
<polygon fill="none" stroke="#000000" points="1619,-36 1536,-36 1536,0 1625,0 1625,-30 1619,-36"/>
<polyline fill="none" stroke="#000000" points="1619,-36 1619,-30 "/>
<polyline fill="none" stroke="#000000" points="1625,-30 1619,-30 "/>
<text text-anchor="middle" x="1580.5" y="-14.3" font-family="Times,serif" font-size="14.00" fill="#000000">var.vpc&#45;stage</text>
</g>
<!-- [root] module.stage&#45;network.var.sub&#45;&gt;[root] var.vpc&#45;stage -->
<g id="edge49" class="edge">
<title>[root] module.stage&#45;network.var.sub&#45;&gt;[root] var.vpc&#45;stage</title>
<path fill="none" stroke="#000000" d="M1705.1386,-215.9555C1681.1887,-177.9173 1625.4197,-89.3431 1597.3191,-44.7127"/>
<polygon fill="#000000" stroke="#000000" points="1600.2147,-42.7425 1591.9247,-36.1451 1594.291,-46.4723 1600.2147,-42.7425"/>
</g>
<!-- [root] module.stage&#45;network.var.vpc&#45;&gt;[root] var.vpc&#45;stage -->
<g id="edge50" class="edge">
<title>[root] module.stage&#45;network.var.vpc&#45;&gt;[root] var.vpc&#45;stage</title>
<path fill="none" stroke="#000000" d="M1500.5006,-71.8314C1513.9331,-62.7927 1530.3473,-51.7476 1544.8039,-42.0198"/>
<polygon fill="#000000" stroke="#000000" points="1547.1654,-44.6494 1553.508,-36.1628 1543.2575,-38.8418 1547.1654,-44.6494"/>
</g>
<!-- [root] output.alb_dns_name -->
<g id="node32" class="node">
<title>[root] output.alb_dns_name</title>
<polygon fill="none" stroke="#000000" points="2065.5,-540 1937.5,-540 1937.5,-504 2071.5,-504 2071.5,-534 2065.5,-540"/>
<polyline fill="none" stroke="#000000" points="2065.5,-540 2065.5,-534 "/>
<polyline fill="none" stroke="#000000" points="2071.5,-534 2065.5,-534 "/>
<text text-anchor="middle" x="2004.5" y="-518.3" font-family="Times,serif" font-size="14.00" fill="#000000">output.alb_dns_name</text>
</g>
<!-- [root] output.alb_dns_name&#45;&gt;[root] module.stage&#45;network.output.alb_dns_name -->
<g id="edge51" class="edge">
<title>[root] output.alb_dns_name&#45;&gt;[root] module.stage&#45;network.output.alb_dns_name</title>
<path fill="none" stroke="#000000" d="M2055.4634,-503.9243C2083.2147,-494.0815 2117.7328,-481.8386 2146.8614,-471.5073"/>
<polygon fill="#000000" stroke="#000000" points="2148.2608,-474.7246 2156.5156,-468.0831 2145.9208,-468.1273 2148.2608,-474.7246"/>
</g>
<!-- [root] var.stage&#45;sub -->
<g id="node35" class="node">
<title>[root] var.stage&#45;sub</title>
<polygon fill="none" stroke="#000000" points="2750,-540 2667,-540 2667,-504 2756,-504 2756,-534 2750,-540"/>
<polyline fill="none" stroke="#000000" points="2750,-540 2750,-534 "/>
<polyline fill="none" stroke="#000000" points="2756,-534 2750,-534 "/>
<text text-anchor="middle" x="2711.5" y="-518.3" font-family="Times,serif" font-size="14.00" fill="#000000">var.stage&#45;sub</text>
</g>
<!-- [root] var.stage&#45;user -->
<g id="node37" class="node">
<title>[root] var.stage&#45;user</title>
<polygon fill="none" stroke="#000000" points="2175.5,-540 2089.5,-540 2089.5,-504 2181.5,-504 2181.5,-534 2175.5,-540"/>
<polyline fill="none" stroke="#000000" points="2175.5,-540 2175.5,-534 "/>
<polyline fill="none" stroke="#000000" points="2181.5,-534 2175.5,-534 "/>
<text text-anchor="middle" x="2135.5" y="-518.3" font-family="Times,serif" font-size="14.00" fill="#000000">var.stage&#45;user</text>
</g>
<!-- [root] meta.count&#45;boundary (EachMode fixup) -->
<g id="node39" class="node">
<title>[root] meta.count&#45;boundary (EachMode fixup)</title>
<ellipse fill="none" stroke="#000000" cx="2024.5" cy="-594" rx="176.5689" ry="18"/>
<text text-anchor="middle" x="2024.5" y="-590.3" font-family="Times,serif" font-size="14.00" fill="#000000">[root] meta.count&#45;boundary (EachMode fixup)</text>
</g>
<!-- [root] meta.count&#45;boundary (EachMode fixup)&#45;&gt;[root] module.stage&#45;compute.aws_autoscaling_group.tfasg -->
<g id="edge3" class="edge">
<title>[root] meta.count&#45;boundary (EachMode fixup)&#45;&gt;[root] module.stage&#45;compute.aws_autoscaling_group.tfasg</title>
<path fill="none" stroke="#000000" d="M1911.1277,-580.1177C1820.9493,-569.0754 1693.7535,-553.5004 1593.7326,-541.253"/>
<polygon fill="#000000" stroke="#000000" points="1593.8774,-537.7446 1583.5261,-540.0032 1593.0266,-544.6927 1593.8774,-537.7446"/>
</g>
<!-- [root] meta.count&#45;boundary (EachMode fixup)&#45;&gt;[root] module.stage&#45;compute.local.ingress_config -->
<g id="edge4" class="edge">
<title>[root] meta.count&#45;boundary (EachMode fixup)&#45;&gt;[root] module.stage&#45;compute.local.ingress_config</title>
<path fill="none" stroke="#000000" d="M2094.1641,-577.3913C2137.9109,-566.9616 2194.64,-553.4368 2241.0907,-542.3625"/>
<polygon fill="#000000" stroke="#000000" points="2241.9227,-545.7623 2250.8384,-540.0385 2240.2993,-538.9531 2241.9227,-545.7623"/>
</g>
<!-- [root] meta.count&#45;boundary (EachMode fixup)&#45;&gt;[root] module.stage&#45;compute.var.az -->
<g id="edge5" class="edge">
<title>[root] meta.count&#45;boundary (EachMode fixup)&#45;&gt;[root] module.stage&#45;compute.var.az</title>
<path fill="none" stroke="#000000" d="M2146.5445,-580.9064C2231.9778,-571.279 2349.0036,-557.172 2461.1957,-540.1555"/>
<polygon fill="#000000" stroke="#000000" points="2461.9824,-543.5761 2471.3397,-538.6069 2460.926,-536.6562 2461.9824,-543.5761"/>
</g>
<!-- [root] meta.count&#45;boundary (EachMode fixup)&#45;&gt;[root] module.stage&#45;network.aws_lb_listener.frontend -->
<g id="edge6" class="edge">
<title>[root] meta.count&#45;boundary (EachMode fixup)&#45;&gt;[root] module.stage&#45;network.aws_lb_listener.frontend</title>
<path fill="none" stroke="#000000" d="M1975.6047,-576.4505C1958.3187,-567.9496 1940.2684,-556.0316 1928.5,-540 1915.4842,-522.2691 1910.9741,-497.5652 1909.5848,-478.5241"/>
<polygon fill="#000000" stroke="#000000" points="1913.0712,-478.1559 1909.0932,-468.3363 1906.0794,-478.4934 1913.0712,-478.1559"/>
</g>
<!-- [root] meta.count&#45;boundary (EachMode fixup)&#45;&gt;[root] module.stage&#45;network.aws_route.tfroute -->
<g id="edge7" class="edge">
<title>[root] meta.count&#45;boundary (EachMode fixup)&#45;&gt;[root] module.stage&#45;network.aws_route.tfroute</title>
<path fill="none" stroke="#000000" d="M1955.2973,-577.3913C1911.9311,-566.9835 1855.7225,-553.4934 1809.6334,-542.432"/>
<polygon fill="#000000" stroke="#000000" points="1810.2013,-538.969 1799.6606,-540.0385 1808.5676,-545.7757 1810.2013,-538.969"/>
</g>
<!-- [root] meta.count&#45;boundary (EachMode fixup)&#45;&gt;[root] output.alb_dns_name -->
<g id="edge8" class="edge">
<title>[root] meta.count&#45;boundary (EachMode fixup)&#45;&gt;[root] output.alb_dns_name</title>
<path fill="none" stroke="#000000" d="M2019.4532,-575.8314C2017.2906,-568.0463 2014.7147,-558.7729 2012.3152,-550.1347"/>
<polygon fill="#000000" stroke="#000000" points="2015.6636,-549.1117 2009.6148,-540.4133 2008.919,-550.9852 2015.6636,-549.1117"/>
</g>
<!-- [root] meta.count&#45;boundary (EachMode fixup)&#45;&gt;[root] var.stage&#45;sub -->
<g id="edge9" class="edge">
<title>[root] meta.count&#45;boundary (EachMode fixup)&#45;&gt;[root] var.stage&#45;sub</title>
<path fill="none" stroke="#000000" d="M2178.7441,-585.1633C2331.1355,-575.687 2554.7308,-559.5878 2656.8131,-540.0261"/>
<polygon fill="#000000" stroke="#000000" points="2657.7795,-543.4019 2666.8929,-537.9985 2656.399,-536.5393 2657.7795,-543.4019"/>
</g>
<!-- [root] meta.count&#45;boundary (EachMode fixup)&#45;&gt;[root] var.stage&#45;user -->
<g id="edge10" class="edge">
<title>[root] meta.count&#45;boundary (EachMode fixup)&#45;&gt;[root] var.stage&#45;user</title>
<path fill="none" stroke="#000000" d="M2051.9382,-576.2022C2066.1063,-567.0121 2083.5853,-555.6744 2098.8888,-545.7478"/>
<polygon fill="#000000" stroke="#000000" points="2101.1215,-548.4714 2107.6064,-540.0931 2097.3121,-542.5987 2101.1215,-548.4714"/>
</g>
<!-- [root] provider.aws (close) -->
<g id="node40" class="node">
<title>[root] provider.aws (close)</title>
<ellipse fill="none" stroke="#000000" cx="1724.5" cy="-594" rx="105.0817" ry="18"/>
<text text-anchor="middle" x="1724.5" y="-590.3" font-family="Times,serif" font-size="14.00" fill="#000000">[root] provider.aws (close)</text>
</g>
<!-- [root] provider.aws (close)&#45;&gt;[root] module.stage&#45;compute.aws_autoscaling_group.tfasg -->
<g id="edge52" class="edge">
<title>[root] provider.aws (close)&#45;&gt;[root] module.stage&#45;compute.aws_autoscaling_group.tfasg</title>
<path fill="none" stroke="#000000" d="M1664.8262,-579.0816C1622.4492,-568.4873 1565.0284,-554.1321 1518.3727,-542.4682"/>
<polygon fill="#000000" stroke="#000000" points="1519.1399,-539.0523 1508.5896,-540.0224 1517.4421,-545.8433 1519.1399,-539.0523"/>
</g>
<!-- [root] provider.aws (close)&#45;&gt;[root] module.stage&#45;network.aws_lb_listener.frontend -->
<g id="edge53" class="edge">
<title>[root] provider.aws (close)&#45;&gt;[root] module.stage&#45;network.aws_lb_listener.frontend</title>
<path fill="none" stroke="#000000" d="M1780.5506,-578.6502C1804.5682,-570.0884 1831.7947,-557.5365 1852.5,-540 1872.6335,-522.9478 1888.0283,-496.9527 1897.7137,-477.2768"/>
<polygon fill="#000000" stroke="#000000" points="1900.8985,-478.7291 1902.0054,-468.1923 1894.5692,-475.739 1900.8985,-478.7291"/>
</g>
<!-- [root] provider.aws (close)&#45;&gt;[root] module.stage&#45;network.aws_route.tfroute -->
<g id="edge54" class="edge">
<title>[root] provider.aws (close)&#45;&gt;[root] module.stage&#45;network.aws_route.tfroute</title>
<path fill="none" stroke="#000000" d="M1724.5,-575.8314C1724.5,-568.131 1724.5,-558.9743 1724.5,-550.4166"/>
<polygon fill="#000000" stroke="#000000" points="1728.0001,-550.4132 1724.5,-540.4133 1721.0001,-550.4133 1728.0001,-550.4132"/>
</g>
<!-- [root] root -->
<g id="node41" class="node">
<title>[root] root</title>
<ellipse fill="none" stroke="#000000" cx="1874.5" cy="-666" rx="47.3916" ry="18"/>
<text text-anchor="middle" x="1874.5" y="-662.3" font-family="Times,serif" font-size="14.00" fill="#000000">[root] root</text>
</g>
<!-- [root] root&#45;&gt;[root] meta.count&#45;boundary (EachMode fixup) -->
<g id="edge55" class="edge">
<title>[root] root&#45;&gt;[root] meta.count&#45;boundary (EachMode fixup)</title>
<path fill="none" stroke="#000000" d="M1904.1352,-651.7751C1925.4091,-641.5636 1954.4834,-627.608 1978.7274,-615.9708"/>
<polygon fill="#000000" stroke="#000000" points="1980.2557,-619.1196 1987.7564,-611.6369 1977.2266,-612.809 1980.2557,-619.1196"/>
</g>
<!-- [root] root&#45;&gt;[root] provider.aws (close) -->
<g id="edge56" class="edge">
<title>[root] root&#45;&gt;[root] provider.aws (close)</title>
<path fill="none" stroke="#000000" d="M1844.8648,-651.7751C1823.2123,-641.3819 1793.4794,-627.1101 1768.9831,-615.3519"/>
<polygon fill="#000000" stroke="#000000" points="1770.4085,-612.1538 1759.8787,-610.9818 1767.3794,-618.4645 1770.4085,-612.1538"/>
</g>
</g>
</svg>
